<?xml version="1.0" standalone="no"?>
<!DOCTYPE svg PUBLIC "-//W3C//DTD SVG 20010904//EN"
 "http://www.w3.org/TR/2001/REC-SVG-20010904/DTD/svg10.dtd">
<svg version="1.0" xmlns="http://www.w3.org/2000/svg"
 width="700.000000pt" height="700.000000pt" viewBox="0 0 700.000000 700.000000"
 preserveAspectRatio="xMidYMid meet">
<metadata>
Created by potrace 1.14, written by Peter Selinger 2001-2017
</metadata>
<g transform="translate(0.000000,700.000000) scale(0.100000,-0.100000)"
fill="#000000" stroke="none">
<path d="M4575 6533 c-35 -19 -1107 -638 -1134 -655 -48 -30 -46 26 -51 -1285
l-5 -1232 -740 427 c-819 472 -789 458 -846 394 -40 -44 -40 -102 -1 -141 15
-15 100 -69 190 -120 90 -52 159 -97 155 -101 -31 -29 -901 -520 -915 -517
-34 9 -909 520 -901 527 16 14 900 520 908 520 5 0 56 -27 115 -60 59 -33 117
-60 129 -60 63 0 118 65 107 126 -8 42 -34 63 -187 152 -94 54 -135 72 -163
72 -30 0 -142 -61 -623 -338 -388 -225 -590 -347 -599 -363 -11 -19 -13 -159
-14 -711 l0 -688 28 -29 c15 -16 369 -227 787 -468 418 -242 988 -571 1266
-731 536 -310 546 -314 603 -277 51 34 58 121 13 162 -12 11 -68 46 -124 79
l-103 59 0 528 c0 304 4 527 9 525 5 -1 212 -120 460 -263 l451 -260 0 -527
c0 -291 -2 -528 -5 -528 -3 0 -77 41 -166 92 -102 58 -171 91 -190 91 -59 0
-109 -48 -109 -105 0 -53 31 -78 285 -226 221 -128 255 -146 295 -146 41 0 93
28 584 313 297 172 547 310 555 308 9 -2 259 -144 556 -316 389 -224 548 -311
570 -311 37 0 1164 645 1208 691 l27 29 0 695 0 694 -22 25 c-13 14 -267 165
-565 337 l-543 313 0 744 0 744 -34 34 c-37 37 -74 44 -121 22 -41 -18 -55
-57 -55 -150 l0 -83 -451 -260 c-248 -143 -455 -261 -460 -263 -5 -2 -9 221
-9 525 l0 529 454 262 c249 144 456 262 460 262 3 0 6 -32 6 -70 0 -81 16
-120 55 -138 47 -22 84 -15 122 23 l34 34 -3 196 c-3 196 -3 197 -28 218 -14
12 -285 172 -601 355 -401 231 -585 332 -605 332 -16 -1 -42 -8 -59 -17z m512
-474 c249 -144 453 -265 453 -268 0 -4 -204 -125 -454 -269 l-454 -262 -456
262 c-250 145 -456 265 -456 268 0 5 899 528 909 529 3 1 209 -117 458 -260z
m-1016 -722 l454 -262 3 -529 c2 -491 1 -528 -15 -522 -9 4 -216 122 -460 263
l-443 256 0 528 c0 291 2 529 4 529 2 0 208 -118 457 -263z m-10 -1303 c244
-141 449 -261 456 -268 10 -9 11 -127 5 -533 l-7 -522 -452 261 -453 261 0
528 c0 291 2 529 4 529 1 0 203 -115 447 -256z m1599 -271 l0 -528 -451 -260
c-249 -143 -455 -261 -460 -263 -5 -2 -9 228 -9 525 l0 529 453 261 c248 144
455 262 460 263 4 0 7 -237 7 -527z m-2830 -328 c247 -143 450 -262 450 -265
-1 -3 -206 -123 -456 -267 l-456 -263 -454 262 c-250 145 -453 266 -452 270 4
11 901 529 910 525 4 -1 210 -119 458 -262z m-2135 -75 c231 -133 423 -245
428 -249 4 -4 6 -244 5 -534 l-3 -527 -455 263 -455 263 -3 533 -2 533 32 -20
c18 -11 222 -129 453 -262z m3302 -597 c227 -131 413 -241 413 -245 0 -6 -869
-510 -900 -522 -9 -4 -201 101 -472 257 l-457 264 461 266 461 266 41 -24 c23
-14 227 -132 453 -262z m2248 7 c231 -133 423 -245 427 -248 5 -5 -811 -486
-892 -525 -13 -7 -129 55 -474 255 -419 241 -455 264 -437 277 11 7 217 127
458 266 l438 253 30 -18 c17 -10 219 -127 450 -260z m-4439 -52 l454 -262 0
-529 c0 -297 -4 -527 -9 -525 -5 2 -211 120 -460 263 l-451 260 0 528 c0 290
3 527 6 527 4 0 211 -118 460 -262z m2702 -1454 c-15 -13 -883 -514 -892 -514
-3 0 -6 237 -6 528 l1 527 452 260 452 261 3 -525 c2 -412 -1 -528 -10 -537z
m692 801 c245 -141 448 -260 453 -264 4 -4 6 -244 5 -533 l-3 -526 -455 263
-455 263 -3 531 c-1 293 1 530 5 528 5 -3 208 -121 453 -262z m1590 -264 l0
-529 -242 -140 c-134 -77 -341 -196 -461 -265 l-217 -126 2 531 3 531 455 263
c250 145 456 264 458 264 1 0 2 -238 2 -529z"/>
<path d="M5711 5256 c-42 -23 -50 -53 -51 -173 0 -105 1 -113 26 -142 45 -54
127 -49 168 11 23 33 23 229 -1 268 -28 48 -92 64 -142 36z"/>
</g>
</svg>
