<?xml version="1.0" encoding="UTF-8" standalone="no"?>
<!-- Created with Inkscape (http://www.inkscape.org/) -->

<svg
   width="216"
   height="24"
   viewBox="0 0 57.149999 6.3500002"
   version="1.1"
   id="svg5"
   inkscape:version="1.1 (c68e22c387, 2021-05-23)"
   sodipodi:docname="icons.svg"
   xmlns:inkscape="http://www.inkscape.org/namespaces/inkscape"
   xmlns:sodipodi="http://sodipodi.sourceforge.net/DTD/sodipodi-0.dtd"
   xmlns="http://www.w3.org/2000/svg"
   xmlns:svg="http://www.w3.org/2000/svg">
  <sodipodi:namedview
     id="namedview7"
     pagecolor="#505050"
     bordercolor="#eeeeee"
     borderopacity="1"
     inkscape:pageshadow="0"
     inkscape:pageopacity="0"
     inkscape:pagecheckerboard="0"
     inkscape:document-units="mm"
     showgrid="true"
     units="px"
     width="168px"
     height="24px"
     inkscape:zoom="2.2518999"
     inkscape:cx="100.80377"
     inkscape:cy="80.154539"
     inkscape:window-width="2560"
     inkscape:window-height="1016"
     inkscape:window-x="0"
     inkscape:window-y="32"
     inkscape:window-maximized="1"
     inkscape:current-layer="layer1">
    <inkscape:grid
       type="xygrid"
       id="grid9"
       spacingx="6.35"
       spacingy="6.35" />
  </sodipodi:namedview>
  <defs
     id="defs2">
    <linearGradient
       id="a"
       gradientUnits="userSpaceOnUse"
       x1="114.114"
       x2="32.006001"
       y1="112.635"
       y2="30.527"
       gradientTransform="matrix(0.05358695,0,0,0.05358695,50.54536,-0.25469858)">
      <stop
         offset="0"
         stop-color="#7b49ad"
         id="stop2" />
      <stop
         offset="1"
         stop-color="#6aa8fb"
         id="stop4" />
    </linearGradient>
  </defs>
  <g
     inkscape:label="Layer 1"
     inkscape:groupmode="layer"
     id="layer1">
    <g
       style="fill:#000000"
       id="g507"
       transform="matrix(0.26458333,0,0,0.26458333,19.05,0)">
      <path
         d="M 0,0 H 24 V 24 H 0 Z"
         fill="none"
         id="path495" />
      <path
         d="M 16,9 V 19 H 8 V 9 h 8 M 14.5,3 h -5 l -1,1 H 5 V 6 H 19 V 4 H 15.5 Z M 18,7 H 6 v 12 c 0,1.1 0.9,2 2,2 h 8 c 1.1,0 2,-0.9 2,-2 z"
         id="path497"
         style="fill:#000000" />
    </g>
    <g
       style="fill:#000000"
       id="g527"
       transform="matrix(0.26458333,0,0,0.26458333,6.35,0)">
      <g
         id="g511">
        <rect
           fill="none"
           height="24"
           width="24"
           id="rect509"
           x="0"
           y="0" />
      </g>
      <g
         id="g515">
        <path
           d="m 18,15 v 3 H 6 V 15 H 4 v 3 c 0,1.1 0.9,2 2,2 h 12 c 1.1,0 2,-0.9 2,-2 V 15 Z M 17,11 15.59,9.59 13,12.17 V 4 h -2 v 8.17 L 8.41,9.59 7,11 l 5,5 z"
           id="path513"
           style="fill:#000000" />
      </g>
    </g>
    <g
       style="fill:#000000"
       id="g547"
       transform="matrix(0.26458333,0,0,0.26458333,12.7,0)">
      <g
         id="g531">
        <rect
           fill="none"
           height="24"
           width="24"
           id="rect529"
           x="0"
           y="0" />
      </g>
      <g
         id="g535">
        <path
           d="m 18,15 v 3 H 6 V 15 H 4 v 3 c 0,1.1 0.9,2 2,2 h 12 c 1.1,0 2,-0.9 2,-2 V 15 Z M 7,9 8.41,10.41 11,7.83 V 16 h 2 V 7.83 L 15.59,10.41 17,9 12,4 Z"
           id="path533"
           style="fill:#000000" />
      </g>
    </g>
    <g
       style="fill:#000000"
       id="g561"
       transform="matrix(-0.26458333,0,0,0.26458333,6.3499999,0)">
      <path
         d="M 0,0 H 24 V 24 H 0 Z"
         fill="none"
         id="path549" />
      <path
         d="m 17,7 h -4 v 2 h 4 c 1.65,0 3,1.35 3,3 0,1.65 -1.35,3 -3,3 h -4 v 2 h 4 c 2.76,0 5,-2.24 5,-5 0,-2.76 -2.24,-5 -5,-5 z m -6,8 H 7 C 5.35,15 4,13.65 4,12 4,10.35 5.35,9 7,9 h 4 V 7 H 7 c -2.76,0 -5,2.24 -5,5 0,2.76 2.24,5 5,5 h 4 z M 8,11 h 8 v 2 H 8 Z"
         id="path551"
         style="fill:#000000" />
    </g>
    <path
       style="fill:#327ae7;fill-opacity:1;stroke:#327ae7;stroke-width:0.297656;stroke-linecap:round;stroke-linejoin:round;stroke-miterlimit:4;stroke-dasharray:none;stroke-opacity:1"
       d="m 33.474171,1.7243699 2.901255,1.4506277 -2.901255,1.4506278 V 1.7243699"
       id="path676" />
    <g
       style="fill:#000000"
       id="g36"
       transform="matrix(0.26458333,0,0,0.26458333,25.4,0)">
      <path
         d="M 0,0 H 24 V 24 H 0 Z"
         fill="none"
         id="path24" />
      <path
         d="m 12,22 c 1.1,0 2,-0.9 2,-2 h -4 c 0,1.1 0.9,2 2,2 z m 6,-6 V 11 C 18,7.93 16.37,5.36 13.5,4.68 V 4 C 13.5,3.17 12.83,2.5 12,2.5 11.17,2.5 10.5,3.17 10.5,4 V 4.68 C 7.64,5.36 6,7.92 6,11 v 5 l -2,2 v 1 h 16 v -1 z m -2,1 H 8 v -6 c 0,-2.48 1.51,-4.5 4,-4.5 2.49,0 4,2.02 4,4.5 z"
         id="path26"
         style="fill:#000000" />
    </g>
    <g
       style="fill:#000000"
       id="g1203"
       transform="matrix(0.26458333,0,0,0.26458333,38.1,0)">
      <path
         d="M 0,0 H 24 V 24 H 0 Z"
         fill="none"
         id="path1191" />
      <path
         d="M 11.99,2 C 6.47,2 2,6.48 2,12 2,17.52 6.47,22 11.99,22 17.52,22 22,17.52 22,12 22,6.48 17.52,2 11.99,2 Z m 6.93,6 H 15.97 C 15.65,6.75 15.19,5.55 14.59,4.44 16.43,5.07 17.96,6.35 18.92,8 Z M 12,4.04 c 0.83,1.2 1.48,2.53 1.91,3.96 H 10.09 C 10.52,6.57 11.17,5.24 12,4.04 Z M 4.26,14 C 4.1,13.36 4,12.69 4,12 4,11.31 4.1,10.64 4.26,10 h 3.38 c -0.08,0.66 -0.14,1.32 -0.14,2 0,0.68 0.06,1.34 0.14,2 z m 0.82,2 h 2.95 c 0.32,1.25 0.78,2.45 1.38,3.56 C 7.57,18.93 6.04,17.66 5.08,16 Z M 8.03,8 H 5.08 C 6.04,6.34 7.57,5.07 9.41,4.44 8.81,5.55 8.35,6.75 8.03,8 Z M 12,19.96 C 11.17,18.76 10.52,17.43 10.09,16 h 3.82 C 13.48,17.43 12.83,18.76 12,19.96 Z M 14.34,14 H 9.66 C 9.57,13.34 9.5,12.68 9.5,12 c 0,-0.68 0.07,-1.35 0.16,-2 h 4.68 c 0.09,0.65 0.16,1.32 0.16,2 0,0.68 -0.07,1.34 -0.16,2 z m 0.25,5.56 c 0.6,-1.11 1.06,-2.31 1.38,-3.56 h 2.95 c -0.96,1.65 -2.49,2.93 -4.33,3.56 z M 16.36,14 c 0.08,-0.66 0.14,-1.32 0.14,-2 0,-0.68 -0.06,-1.34 -0.14,-2 h 3.38 c 0.16,0.64 0.26,1.31 0.26,2 0,0.69 -0.1,1.36 -0.26,2 z"
         id="path1193" />
    </g>
    <g
       style="fill:#000000"
       id="g1533"
       transform="matrix(0.26458333,0,0,0.26458333,44.45,0)">
      <path
         d="M 0,0 H 24 V 24 H 0 Z M 0,0 H 24 V 24 H 0 Z"
         fill="none"
         id="path1521" />
      <path
         d="M 22,9 V 7 H 20 V 5 C 20,3.9 19.1,3 18,3 H 4 C 2.9,3 2,3.9 2,5 v 14 c 0,1.1 0.9,2 2,2 h 14 c 1.1,0 2,-0.9 2,-2 v -2 h 2 v -2 h -2 v -2 h 2 V 11 H 20 V 9 Z M 18,19 H 4 V 5 H 18 Z M 6,13 h 5 v 4 H 6 Z m 6,-6 h 4 v 3 H 12 Z M 6,7 h 5 v 5 H 6 Z m 6,4 h 4 v 6 h -4 z"
         id="path1523"
         style="fill:#327ae7;fill-opacity:1" />
    </g>
    <path
       d="M 57.10306,3.9853694 56.1228,3.4193834 v -1.13406 -0.0011 -0.0011 -0.183321 a 0.09378,0.09378 0 1 0 -0.18756,0 v 0.129198 l -0.36343,0.2099 -0.47595,0.274794 v -0.969602 l 0.83944,-0.484748 v 0.115694 a 0.09377725,0.09377725 0 0 0 0.18755,0 v -0.278116 c 0,-8.03e-4 0,-0.0015 -3e-4,-0.0022 a 0.09345564,0.09345564 0 0 0 -0.0113,-0.0425 c -9.7e-4,-0.0017 -0.002,-0.0033 -0.003,-0.005 a 0.09517042,0.09517042 0 0 0 -0.0103,-0.01345 c -10e-4,-0.0014 -0.003,-0.0029 -0.004,-0.0043 a 0.09254466,0.09254466 0 0 0 -0.0178,-0.01377 L 55.04892,0.42292342 a 0.09366999,0.09366999 0 0 0 -0.0938,0 L 53.92797,1.0159174 a 0.09383075,0.09383075 0 0 0 -0.0469,0.08124 v 1.185987 0.0013 8.57e-4 1.0256 l -0.88628,-0.511165 -0.45056,-0.260647 a 0.0937885,0.0937885 0 0 0 -0.0938,0.162422 l 0.31011,0.179087 -0.83981,0.484641 -0.83939,-0.484641 0.83971,-0.484854 0.17587,0.101815 a 0.09384893,0.09384893 0 1 0 0.0937,-0.162637 L 51.9678,2.2063144 a 0.09366999,0.09366999 0 0 0 -0.0938,0 l -1.02651,0.592779 H 50.8469 A 0.09409868,0.09409868 0 0 0 50.8,2.8806534 v 1.185879 a 0.09404509,0.09404509 0 0 0 0.0469,0.08124 l 0.65655,0.379128 0.37072,0.214347 0.38855,0.224262 0.63833,0.368571 h 3.2e-4 l 0.23085,0.13327 a 0.09378079,0.09378079 0 1 0 0.0938,-0.162422 l -0.18423,-0.10637 v -0.969548 l 0.83949,0.484747 v 0.969442 l -0.28733,-0.16612 a 0.09378079,0.09378079 0 0 0 -0.0938,0.162422 l 0.428,0.24709 a 0.09356281,0.09356281 0 0 0 0.0938,0 l 0.98022,-0.565396 0.98015,0.565878 a 0.09313412,0.09313412 0 0 0 0.0469,0.01259 0.09313412,0.09313412 0 0 0 0.0469,-0.01259 l 0.82165,-0.474405 0.2054,-0.118588 a 0.09372357,0.09372357 0 0 0 0.0469,-0.08124 v -1.186254 a 0.09377716,0.09377716 0 0 0 -0.0468,-0.08124 z m -5.08835,0.620269 v -0.969549 l 0.83934,0.48464 v 0.969335 L 52.3678,4.8092684 Z m 0.93322,-0.647277 -0.83965,-0.484855 0.83938,-0.484586 0.83971,0.484586 z m 1.96032,-1.244343 -0.83966,-0.485015 v -0.969442 l 0.83966,0.484855 z m 0.18755,0.218796 0.83933,-0.484694 v 0.968959 l -0.83933,0.484694 z m 0,1.296804 0.8395,0.484748 v 0.969334 l -0.8395,-0.484694 z m -1.0271,-0.812485 v -0.969281 l 0.83955,0.484748 v 0.969334 l -0.4548,-0.262576 z m 2.0542,2.266031 v -0.969388 l 0.8395,-0.484747 v 0.969441 l -0.21596,0.124643 z m -0.0939,-1.131756 -0.83954,-0.484801 0.8396,-0.48448 0.83954,0.48448 z M 55.0019,0.61239242 55.84145,1.0971394 55.0019,1.5818874 54.16246,1.0971394 Z M 51.82693,4.4974464 50.98744,4.0124304 v -0.969441 l 0.83949,0.484747 z m 1.30854,-0.430571 0.84131,-0.48582 0.4355,0.25143 0.40394,0.233103 -0.84131,0.48582 z m 0.93321,0.647008 0.83944,-0.484747 v 0.969441 l -0.83944,0.484641 z m 2.0541,-3.050597 v 0.143452 a 0.09377725,0.09377725 0 0 1 -0.18755,0 v -0.143452 a 0.09377725,0.09377725 0 0 1 0.18755,0 z"
       fill="url(#a)"
       id="path7"
       style="fill:url(#a);stroke-width:0.0535868" />
  </g>
</svg>
